# Blender v2.93.5 OBJ File: 'ZhezlVITYAZ.blend'
# www.blender.org
mtllib ZhezlVITYAZ.mtl
o Cube_Cube.001
v -0.114385 1.029030 0.114384
v -0.114385 1.029030 -0.114384
v 0.114384 1.029030 -0.114384
v 0.114384 1.029030 0.114384
v -0.290968 0.669660 0.253298
v -0.290968 0.669660 -0.253298
v 0.290968 0.669660 -0.253298
v 0.290968 0.669660 0.253298
v -0.290968 0.910608 0.253298
v -0.290968 0.910608 -0.253298
v 0.290968 0.910608 -0.253298
v 0.290968 0.910608 0.253298
v -0.246222 0.612311 0.214345
v -0.246222 0.612311 -0.214345
v 0.246222 0.612311 -0.214345
v 0.246222 0.612311 0.214345
v -0.246222 0.967958 0.214345
v -0.246222 0.967958 -0.214345
v 0.246222 0.967958 -0.214345
v 0.246222 0.967958 0.214345
v -0.029958 -0.673788 0.056536
v -0.056536 -0.673788 0.029958
v -0.132650 0.575031 0.065404
v -0.064272 0.579323 0.130353
v -0.130662 0.584556 0.159093
v -0.056536 -0.673788 -0.029958
v -0.029958 -0.673788 -0.056536
v -0.064272 0.579323 -0.130353
v -0.132650 0.575031 -0.065404
v -0.130662 0.584556 -0.159093
v 0.056536 -0.673788 0.029958
v 0.029958 -0.673788 0.056536
v 0.064272 0.579323 0.130353
v 0.132650 0.575031 0.065404
v 0.130662 0.584556 0.159093
v 0.029958 -0.673788 -0.056536
v 0.056536 -0.673788 -0.029958
v 0.132650 0.575031 -0.065404
v 0.064272 0.579323 -0.130353
v 0.130662 0.584556 -0.159093
v -0.097096 -0.612311 0.047874
v -0.047874 -0.612311 0.097096
v -0.047874 -0.612311 -0.097096
v -0.097096 -0.612311 -0.047874
v 0.097096 -0.612311 -0.047874
v 0.047874 -0.612311 -0.097096
v 0.047874 -0.612311 0.097096
v 0.097096 -0.612311 0.047874
v -0.036669 0.454230 0.074369
v -0.074369 0.454230 0.036669
v -0.036669 0.454230 -0.074369
v -0.074369 0.454230 -0.036669
v 0.074369 0.454230 -0.036669
v 0.036669 0.454230 -0.074369
v 0.036669 0.454230 0.074369
v 0.074369 0.454230 0.036669
v -0.155735 0.742883 0.136842
v -0.156166 0.742745 -0.136844
v 0.156165 0.742746 -0.136843
v 0.155955 0.742814 0.136842
v -0.157017 0.836232 0.136849
v -0.157143 0.836267 -0.136849
v 0.157141 0.836267 -0.136849
v 0.157153 0.836270 0.136849
v -0.175450 0.632763 -0.331061
v 0.175421 0.632805 -0.331061
v 0.174458 0.633689 0.331061
v -0.175634 0.632595 0.331061
v -0.184572 0.694390 -0.295758
v 0.184403 0.694522 -0.295758
v 0.182644 0.695467 0.295758
v -0.184503 0.694428 0.295758
v -0.125176 0.728293 -0.411728
v 0.125201 0.728318 -0.411728
v 0.125967 0.728434 0.411600
v -0.126167 0.730987 0.412389
v -0.114503 0.746982 -0.335049
v 0.114563 0.747030 -0.335049
v 0.115033 0.744127 0.334315
v -0.115590 0.746360 0.335248
v -0.066612 0.805153 -0.348767
v 0.067164 0.805153 -0.348767
v 0.067184 0.805298 0.345538
v -0.066578 0.806586 0.344112
v -0.078768 0.781885 -0.298384
v 0.079320 0.781885 -0.298384
v 0.079284 0.780336 0.297559
v -0.078786 0.781858 0.295873
v -0.125840 1.049672 0.000000
v 0.125836 1.049672 0.000000
v -0.284591 0.579497 0.000000
v 0.284587 0.579497 0.000000
v -0.284591 0.990562 0.000000
v 0.284587 0.990562 0.000000
v -0.336309 0.645783 0.000000
v 0.336305 0.645783 0.000000
v -0.336309 0.924276 0.000000
v 0.336305 0.924276 0.000000
v -0.176034 0.732502 0.000000
v 0.176154 0.732464 0.000000
v -0.177301 0.837969 0.000000
v 0.177374 0.837990 0.000000
vt 0.764598 0.463978
vt 0.775572 0.512612
vt 0.724470 0.512612
vt 0.735444 0.463978
vt 0.465151 0.084734
vt 0.438758 0.096159
vt 0.387657 0.096159
vt 0.361264 0.084734
vt 0.315325 0.062769
vt 0.511091 0.062769
vt 0.465151 0.211225
vt 0.465941 0.173980
vt 0.465941 0.121979
vt 0.526342 0.147979
vt 0.511091 0.233190
vt 0.360474 0.121979
vt 0.360474 0.173980
vt 0.361264 0.211225
vt 0.315325 0.233190
vt 0.300072 0.147979
vt 0.882397 0.463194
vt 0.893189 0.509407
vt 0.841194 0.508621
vt 0.853246 0.462753
vt 0.105641 0.479637
vt 0.105641 0.379586
vt 0.149246 0.384155
vt 0.149246 0.475099
vt 0.059443 0.384140
vt 0.016370 0.331748
vt 0.101930 0.316499
vt 0.184653 0.527540
vt 0.101930 0.542769
vt 0.943680 0.062980
vt 0.931635 0.017158
vt 0.983630 0.016370
vt 0.972831 0.062538
vt 0.369923 0.737010
vt 0.369922 0.612846
vt 0.406778 0.612458
vt 0.406778 0.737398
vt 0.600857 0.774487
vt 0.596152 0.828910
vt 0.559126 0.828910
vt 0.559081 0.774485
vt 0.439517 0.799117
vt 0.444277 0.744737
vt 0.481231 0.744732
vt 0.481274 0.799114
vt 0.300114 0.736847
vt 0.300072 0.612939
vt 0.337183 0.612458
vt 0.337183 0.737352
vt 0.184653 0.331774
vt 0.059443 0.475085
vt 0.016370 0.527513
vt 0.387657 0.199800
vt 0.438758 0.199800
vt 0.626392 0.463226
vt 0.637365 0.515451
vt 0.586264 0.515451
vt 0.597238 0.463226
vt 0.242038 0.417152
vt 0.252923 0.517890
vt 0.231599 0.502453
vt 0.217392 0.417208
vt 0.252215 0.265766
vt 0.252228 0.034424
vt 0.267332 0.076801
vt 0.267332 0.223482
vt 0.721896 0.646094
vt 0.732810 0.746742
vt 0.711519 0.731202
vt 0.697288 0.646031
vt 0.053363 0.034381
vt 0.053350 0.265723
vt 0.035130 0.223405
vt 0.035073 0.077450
vt 0.044261 0.676249
vt 0.048255 0.776900
vt 0.024124 0.761375
vt 0.016370 0.676204
vt 0.080995 0.806851
vt 0.080995 0.575509
vt 0.101558 0.593297
vt 0.101558 0.789063
vt 0.245314 0.651274
vt 0.249278 0.752020
vt 0.225119 0.736579
vt 0.217392 0.651324
vt 0.765549 0.776693
vt 0.765549 0.545351
vt 0.789047 0.563139
vt 0.789047 0.758905
vt 0.697288 0.512115
vt 0.720456 0.464679
vt 0.838205 0.463708
vt 0.835494 0.040599
vt 0.855130 0.039351
vt 0.945571 0.486340
vt 0.925928 0.485061
vt 0.928634 0.062000
vt 0.769053 0.040028
vt 0.788620 0.040944
vt 0.779586 0.464679
vt 0.821786 0.735338
vt 0.832352 0.724772
vt 0.856171 0.724772
vt 0.866737 0.735338
vt 0.866737 0.759157
vt 0.856171 0.769723
vt 0.832352 0.769723
vt 0.821786 0.759157
vt 0.727546 0.016864
vt 0.738112 0.016370
vt 0.730989 0.040028
vt 0.711422 0.040944
vt 0.623724 0.017760
vt 0.634290 0.016370
vt 0.650414 0.041534
vt 0.630847 0.044108
vt 0.589339 0.016370
vt 0.599905 0.017760
vt 0.592783 0.044108
vt 0.573215 0.041534
vt 0.761931 0.016370
vt 0.772496 0.016864
vt 0.862556 0.016370
vt 0.886372 0.016730
vt 0.893189 0.039926
vt 0.976809 0.508930
vt 0.952992 0.509291
vt 0.983630 0.485763
vt 0.802754 0.512115
vt 0.559081 0.510363
vt 0.582250 0.461254
vt 0.641379 0.461254
vt 0.664548 0.510363
vt 0.148840 0.220078
vt 0.201916 0.212195
vt 0.154280 0.283760
vt 0.201923 0.088031
vt 0.148851 0.080069
vt 0.094483 0.088092
vt 0.154295 0.016370
vt 0.094472 0.212000
vt 0.400767 0.516507
vt 0.455170 0.508443
vt 0.501463 0.561694
vt 0.400767 0.579719
vt 0.346365 0.383553
vt 0.346365 0.508493
vt 0.300072 0.561694
vt 0.300072 0.330352
vt 0.400767 0.375510
vt 0.400767 0.312328
vt 0.455170 0.383548
vt 0.501463 0.330352
vt 0.843391 0.545351
vt 0.843391 0.692033
vt 0.821799 0.664277
vt 0.821786 0.573214
vt 0.291373 0.797618
vt 0.286296 0.770092
vt 0.337183 0.779941
vt 0.318034 0.804752
vt 0.044927 0.853674
vt 0.016370 0.843286
vt 0.022330 0.812338
vt 0.044927 0.809639
vt 0.901521 0.588631
vt 0.876241 0.575844
vt 0.876130 0.547172
vt 0.901521 0.545351
vt 0.134297 0.850177
vt 0.159650 0.837533
vt 0.159650 0.881622
vt 0.134349 0.879398
vt 0.482561 0.279589
vt 0.343387 0.279589
vt 0.847764 0.819842
vt 0.876314 0.809433
vt 0.876314 0.853389
vt 0.853734 0.850770
vt 0.343460 0.016370
vt 0.482944 0.016370
vt 0.815025 0.855190
vt 0.795333 0.830695
vt 0.793752 0.809433
vt 0.815025 0.813493
vt 0.487374 0.612458
vt 0.487374 0.711993
vt 0.457835 0.688737
vt 0.457836 0.635555
vt 0.176161 0.575509
vt 0.176161 0.714993
vt 0.134297 0.695003
vt 0.134299 0.595468
vt 0.765549 0.865331
vt 0.769961 0.837699
vt 0.683284 0.836524
vt 0.686938 0.808837
vt 0.713440 0.800207
vt 0.732810 0.824973
vt 0.016370 0.196026
vt 0.016881 0.104344
vt 0.627796 0.548190
vt 0.627796 0.687365
vt 0.591610 0.668201
vt 0.590298 0.567972
vt 0.137962 0.775446
vt 0.134297 0.747733
vt 0.183836 0.759308
vt 0.164470 0.784081
vt 0.439517 0.693556
vt 0.439518 0.630711
vt 0.217392 0.847601
vt 0.217392 0.784759
vt 0.237836 0.789790
vt 0.237836 0.842968
vt 0.711084 0.779481
vt 0.732810 0.784145
vt 0.649776 0.720104
vt 0.649776 0.811790
vt 0.633596 0.797305
vt 0.633714 0.734462
vt 0.559785 0.644932
vt 0.559081 0.591758
vt 0.183836 0.800140
vt 0.162103 0.804794
vt 0.337183 0.821806
vt 0.315997 0.826515
vt 0.369922 0.861200
vt 0.369922 0.770137
vt 0.384498 0.784148
vt 0.384498 0.846994
vt 0.249278 0.550629
vt 0.225119 0.566158
vt 0.048255 0.575509
vt 0.024124 0.590955
vt 0.732810 0.545351
vt 0.711519 0.560782
vt 0.252923 0.316499
vt 0.231599 0.332032
vt 0.444191 0.853537
vt 0.481223 0.853537
vt 0.596098 0.720110
vt 0.559105 0.720104
vn 0.0000 -0.4085 0.9128
vn 0.0000 -0.9172 -0.3985
vn 0.1068 -0.9943 0.0000
vn -0.1068 -0.9943 0.0000
vn -0.9007 -0.4345 0.0000
vn -0.0000 0.9841 0.1776
vn -0.3255 0.9298 -0.1717
vn 0.3255 0.9298 0.1717
vn 0.9007 -0.4345 0.0000
vn 0.0000 -0.0001 -1.0000
vn 0.9893 -0.0109 -0.1457
vn -0.9890 -0.0127 0.1471
vn -0.0000 -0.0001 1.0000
vn -0.0000 0.8533 0.5214
vn -0.0000 0.8533 -0.5214
vn 0.0000 -0.9172 0.3985
vn 0.0000 -0.4085 -0.9128
vn -0.7377 -0.6417 -0.2098
vn -0.0001 0.8635 0.5043
vn 0.7377 -0.6417 0.2098
vn -0.0009 0.8592 -0.5117
vn -0.7462 0.6400 0.1832
vn 0.0000 0.5619 -0.8272
vn 0.7462 0.6400 -0.1832
vn 0.0000 0.5619 0.8272
vn -0.0343 -0.9942 0.1018
vn -0.0343 -0.9942 -0.1018
vn 0.0343 -0.9942 0.1018
vn 0.0343 -0.9942 -0.1018
vn -0.6151 -0.4402 0.6541
vn -0.7069 0.0225 -0.7069
vn 0.7069 0.0225 -0.7069
vn 0.7069 0.0225 0.7069
vn 0.0000 -1.0000 0.0000
vn -0.5867 -0.5581 0.5867
vn -0.5867 -0.5581 -0.5867
vn 0.5867 -0.5581 -0.5867
vn 0.5867 -0.5581 0.5867
vn -0.8347 -0.5507 0.0000
vn 0.0000 -0.5507 -0.8347
vn 0.8347 -0.5507 0.0000
vn 0.0000 -0.5507 0.8347
vn 0.6151 -0.4402 0.6541
vn 0.6151 -0.4402 -0.6541
vn -0.6151 -0.4402 -0.6541
vn -0.7069 0.0225 0.7069
vn 0.0000 0.0213 -0.9998
vn 0.9998 0.0213 0.0000
vn -0.9998 0.0213 0.0000
vn 0.0000 0.0213 0.9998
vn -0.4754 0.8797 -0.0025
vn -0.0000 0.8470 -0.5316
vn 0.4754 0.8798 0.0027
vn 0.0001 0.8467 0.5321
vn -0.4670 -0.8832 0.0437
vn -0.0000 -0.8429 -0.5381
vn 0.4672 -0.8831 -0.0437
vn 0.0000 -0.8428 0.5382
vn -0.0002 0.5988 0.8009
vn -0.8512 0.4386 0.2882
vn 0.5964 -0.2920 -0.7477
vn -0.5974 -0.2916 0.7470
vn 0.5915 -0.2859 0.7539
vn 0.0013 -0.9844 0.1757
vn -0.5966 -0.2930 -0.7472
vn 0.0000 -0.9850 -0.1728
vn 0.7836 0.6200 -0.0386
vn -0.0000 0.6337 -0.7735
vn 0.0001 -0.6452 -0.7640
vn 0.8470 0.4473 0.2871
vn -0.8449 0.4402 -0.3040
vn -0.0000 0.6130 -0.7901
vn -0.0006 -0.6423 0.7664
vn 0.8453 0.4398 -0.3034
vn 0.0000 0.9079 0.4193
vn 0.0134 0.8884 -0.4588
vn -0.7703 0.6375 0.0140
vn -0.0057 -0.7279 -0.6857
vn 0.0053 0.6611 0.7503
vn 0.7733 0.6338 0.0135
vn -0.7724 0.6341 -0.0373
vn 0.0001 -0.7245 0.6892
vn 0.4672 -0.8831 0.0437
vn -0.4671 -0.8831 -0.0436
vn 0.4755 0.8797 -0.0026
vn -0.4752 0.8799 0.0027
vn 0.7462 0.6400 0.1832
vn -0.7462 0.6400 -0.1832
vn 0.7377 -0.6417 -0.2098
vn -0.7377 -0.6417 0.2098
vn -0.9894 -0.0112 -0.1450
vn 0.9891 -0.0120 0.1465
vn 0.3255 0.9298 -0.1717
vn -0.3255 0.9298 0.1717
vn -0.0000 0.9841 -0.1776
usemtl Material
s off
f 55/1/1 33/2/1 24/3/1 49/4/1
f 40/5/2 39/6/2 28/7/2 30/8/2 14/9/2 15/10/2
f 35/11/3 34/12/3 38/13/3 40/5/3 15/10/3 92/14/3 16/15/3
f 30/8/4 29/16/4 23/17/4 25/18/4 13/19/4 91/20/4 14/9/4
f 50/21/5 23/22/5 29/23/5 52/24/5
f 90/25/6 89/26/6 1/27/6 4/28/6
f 89/26/7 2/29/7 18/30/7 93/31/7
f 90/25/8 4/28/8 20/32/8 94/33/8
f 53/34/9 38/35/9 34/36/9 56/37/9
f 59/38/10 58/39/10 62/40/10 63/41/10
f 100/42/11 59/43/11 63/44/11 102/45/11
f 99/46/12 57/47/12 61/48/12 101/49/12
f 57/50/13 60/51/13 64/52/13 61/53/13
f 4/28/14 1/27/14 17/54/14 20/32/14
f 2/29/15 3/55/15 19/56/15 18/30/15
f 25/18/16 24/57/16 33/58/16 35/11/16 16/15/16 13/19/16
f 51/59/17 28/60/17 39/61/17 54/62/17
f 95/63/18 6/64/18 14/65/18 91/66/18
f 6/67/19 7/68/19 70/69/19 69/70/19
f 96/71/20 8/72/20 16/73/20 92/74/20
f 8/75/21 5/76/21 72/77/21 71/78/21
f 97/79/22 9/80/22 17/81/22 93/82/22
f 11/83/23 10/84/23 18/85/23 19/86/23
f 98/87/24 11/88/24 19/89/24 94/90/24
f 9/91/25 12/92/25 20/93/25 17/94/25
f 23/17/26 24/57/26 25/18/26
f 28/7/27 29/16/27 30/8/27
f 33/58/28 34/12/28 35/11/28
f 38/13/29 39/6/29 40/5/29
f 49/4/30 24/3/30 23/95/30 50/96/30
f 51/97/31 43/98/31 44/99/31 52/24/31
f 53/34/32 45/100/32 46/101/32 54/102/32
f 55/1/33 47/103/33 48/104/33 56/105/33
f 26/106/34 27/107/34 36/108/34 37/109/34 31/110/34 32/111/34 21/112/34 22/113/34
f 22/114/35 21/115/35 42/116/35 41/117/35
f 27/118/36 26/119/36 44/120/36 43/121/36
f 37/122/37 36/123/37 46/124/37 45/125/37
f 32/126/38 31/127/38 48/104/38 47/103/38
f 26/128/39 22/129/39 41/130/39 44/99/39
f 36/123/40 27/118/40 43/121/40 46/124/40
f 31/131/41 37/132/41 45/100/41 48/133/41
f 21/115/42 32/126/42 47/103/42 42/116/42
f 33/2/43 55/1/43 56/105/43 34/134/43
f 38/135/44 53/136/44 54/62/44 39/61/44
f 28/60/45 51/59/45 52/137/45 29/138/45
f 42/116/46 49/4/46 50/96/46 41/117/46
f 43/121/47 51/59/47 54/62/47 46/124/47
f 45/100/48 53/34/48 56/37/48 48/133/48
f 41/130/49 50/21/49 52/24/49 44/99/49
f 47/103/50 55/1/50 49/4/50 42/116/50
f 99/139/51 58/140/51 6/67/51 95/141/51
f 58/140/52 59/142/52 7/68/52 6/67/52
f 100/143/53 60/144/53 8/75/53 96/145/53
f 60/144/54 57/146/54 5/76/54 8/75/54
f 101/147/55 61/148/55 9/149/55 97/150/55
f 63/151/56 62/152/56 10/153/56 11/154/56
f 102/155/57 63/151/57 11/154/57 98/156/57
f 61/148/58 64/157/58 12/158/58 9/149/58
f 69/159/59 70/160/59 78/161/59 77/162/59
f 72/163/60 68/164/60 76/165/60 80/166/60
f 7/167/61 15/168/61 66/169/61 70/170/61
f 5/171/62 13/172/62 68/173/62 72/174/62
f 16/175/63 8/176/63 71/177/63 67/178/63
f 13/19/64 16/15/64 67/179/64 68/180/64
f 14/181/65 6/182/65 69/183/65 65/184/65
f 15/10/66 14/9/66 65/185/66 66/186/66
f 75/187/67 79/188/67 87/189/67 83/190/67
f 74/191/68 73/192/68 81/193/68 82/194/68
f 66/195/69 65/196/69 73/197/69 74/198/69
f 67/199/70 71/200/70 79/188/70 75/187/70
f 65/201/71 69/202/71 77/203/71 73/204/71
f 71/78/72 72/77/72 80/205/72 79/206/72
f 68/207/73 67/208/73 75/209/73 76/210/73
f 70/211/74 66/212/74 74/213/74 78/214/74
f 85/215/75 86/216/75 82/194/75 81/193/75
f 87/217/76 88/218/76 84/219/76 83/220/76
f 73/204/77 77/203/77 85/221/77 81/222/77
f 79/223/78 80/224/78 88/225/78 87/226/78
f 76/210/79 75/209/79 83/227/79 84/228/79
f 78/214/80 74/213/80 82/229/80 86/230/80
f 80/166/81 76/165/81 84/231/81 88/232/81
f 77/233/82 78/234/82 86/235/82 85/236/82
f 64/157/83 102/155/83 98/156/83 12/158/83
f 62/152/84 101/147/84 97/150/84 10/153/84
f 59/142/85 100/143/85 96/145/85 7/68/85
f 57/146/86 99/139/86 95/141/86 5/76/86
f 12/237/87 98/87/87 94/90/87 20/238/87
f 10/239/88 97/79/88 93/82/88 18/240/88
f 7/241/89 96/71/89 92/74/89 15/242/89
f 5/243/90 95/63/90 91/66/90 13/244/90
f 58/245/91 99/46/91 101/49/91 62/246/91
f 60/247/92 100/42/92 102/45/92 64/248/92
f 3/55/93 90/25/93 94/33/93 19/56/93
f 1/27/94 89/26/94 93/31/94 17/54/94
f 3/55/95 2/29/95 89/26/95 90/25/95
