# Blender v2.93.5 OBJ File: 'Zazhim.blend'
# www.blender.org
mtllib Zazhim.mtl
o Cube_Cube.001
v -0.081096 1.019098 0.081096
v -0.081096 1.019098 -0.081096
v 0.081096 1.019098 -0.081096
v 0.081096 1.019098 0.081096
v -0.216732 0.669660 0.374485
v -0.216732 0.669660 -0.374485
v 0.216732 0.669660 -0.374485
v 0.216732 0.669660 0.374485
v -0.216732 0.910608 0.374485
v -0.216732 0.910608 -0.374485
v 0.216732 0.910608 -0.374485
v 0.216732 0.910608 0.374485
v -0.183402 0.612311 0.316896
v -0.183402 0.612311 -0.316896
v 0.183402 0.612311 -0.316896
v 0.183402 0.612311 0.316896
v -0.183402 0.967958 0.316896
v -0.183402 0.967958 -0.316896
v 0.183402 0.967958 -0.316896
v 0.183402 0.967958 0.316896
v -0.041252 0.661658 0.036017
v -0.020340 0.661658 0.073021
v -0.097326 0.584556 0.118503
v -0.020340 0.661658 -0.072968
v -0.041252 0.661658 -0.035964
v -0.097326 0.584556 -0.118503
v 0.020340 0.661658 0.073021
v 0.041252 0.661658 0.036017
v 0.097326 0.584556 0.118503
v 0.041252 0.661658 -0.035964
v 0.020340 0.661658 -0.072968
v 0.097326 0.584556 -0.118503
v -0.034454 0.848500 0.115670
v -0.034454 0.848500 -0.115617
v 0.034454 0.848500 -0.115617
v 0.034454 0.848500 0.115670
v -0.077920 0.675673 0.079439
v -0.077920 0.675673 -0.079386
v 0.077920 0.675673 -0.079386
v 0.077920 0.675673 0.079439
v -0.077920 0.826773 0.079439
v -0.077920 0.826773 -0.079386
v 0.077920 0.826773 -0.079386
v 0.077920 0.826773 0.079439
v -0.092080 0.700039 0.093870
v -0.092080 0.700039 -0.093817
v 0.092080 0.700039 -0.093817
v 0.092080 0.700039 0.093870
v -0.092080 0.802407 0.093870
v -0.092080 0.802407 -0.093817
v 0.092080 0.802407 -0.093817
v 0.092080 0.802407 0.093870
v 0.041328 0.663395 0.077499
v -0.041328 0.663395 0.077499
v 0.042120 0.662272 0.070854
v -0.042120 0.662272 0.070854
v 0.041122 0.662167 -0.070512
v -0.041121 0.662167 -0.070512
v 0.041327 0.663377 -0.077023
v -0.041327 0.663377 -0.077023
v 0.086100 0.959363 0.068999
v 0.194720 0.623364 0.269585
v 0.194720 0.917122 0.269585
v 0.230107 0.670733 0.318574
v 0.230107 0.869752 0.318574
v 0.103316 0.600157 0.120939
v -0.086100 0.959363 0.068999
v -0.194720 0.623364 0.269585
v -0.194720 0.917122 0.269585
v -0.230107 0.670733 0.318574
v -0.230107 0.869752 0.318574
v -0.103316 0.600157 0.120939
v -0.086100 0.959363 -0.068971
v -0.194720 0.623364 -0.269557
v -0.194720 0.917122 -0.269557
v -0.230107 0.670733 -0.318546
v -0.230107 0.869752 -0.318546
v -0.103315 0.600146 -0.120732
v 0.086100 0.959363 -0.068971
v 0.194720 0.623364 -0.269557
v 0.194720 0.917122 -0.269557
v 0.230107 0.670733 -0.318546
v 0.230107 0.869752 -0.318546
v 0.103315 0.600146 -0.120732
v 0.000000 1.052049 -0.097416
v 0.000000 1.052049 0.097414
v -0.000000 0.563402 -0.380667
v -0.000000 0.563402 0.380665
v -0.000000 0.990617 -0.380667
v -0.000000 0.990617 0.380665
v -0.000000 0.632292 -0.449846
v -0.000000 0.632292 0.449843
v -0.000000 0.921727 -0.449846
v -0.000000 0.921727 0.449843
v 0.000000 0.847120 -0.138884
v 0.000000 0.847120 0.138946
v 0.000000 0.980292 0.082883
v 0.000000 0.980292 -0.082851
v -0.023782 0.826547 0.000027
v 0.023782 0.826547 0.000027
v -0.053784 0.707254 0.000027
v 0.053784 0.707254 0.000027
v -0.053784 0.811550 0.000027
v 0.053784 0.811550 0.000027
v -0.063558 0.724072 0.000027
v 0.063558 0.724072 0.000027
v -0.063558 0.794732 0.000027
v 0.063558 0.794732 0.000027
v 0.000000 0.825595 0.000029
vt 0.245422 0.487616
vt 0.252331 0.531556
vt 0.226427 0.573733
vt 0.184112 0.587440
vt 0.055257 0.569095
vt 0.080320 0.454953
vt 0.170791 0.380984
vt 0.468546 0.358361
vt 0.496676 0.410125
vt 0.475113 0.409592
vt 0.380613 0.339458
vt 0.413973 0.674466
vt 0.461682 0.709110
vt 0.441841 0.717974
vt 0.326662 0.694972
vt 0.446861 0.595494
vt 0.498174 0.602079
vt 0.479599 0.633459
vt 0.427571 0.634378
vt 0.851423 0.869121
vt 0.829858 0.898896
vt 0.742206 0.820461
vt 0.780980 0.804250
vt 0.411590 0.568022
vt 0.398048 0.601382
vt 0.299246 0.530520
vt 0.316411 0.504181
vt 0.528624 0.721658
vt 0.551734 0.624536
vt 0.696742 0.624536
vt 0.702814 0.721658
vt 0.373944 0.040711
vt 0.379832 0.015225
vt 0.521847 0.042787
vt 0.491245 0.063476
vt 0.091962 0.043318
vt 0.098119 0.015225
vt 0.240018 0.043901
vt 0.209168 0.067003
vt 0.933194 0.536778
vt 0.832712 0.520893
vt 0.832712 0.376229
vt 0.933194 0.363002
vt 0.603751 0.083530
vt 0.610624 0.034251
vt 0.765093 0.022720
vt 0.765038 0.139548
vt 0.040683 0.688839
vt 0.047314 0.639468
vt 0.201365 0.627894
vt 0.201420 0.744788
vt 0.583273 0.568582
vt 0.545275 0.546618
vt 0.528624 0.498731
vt 0.544799 0.457931
vt 0.640564 0.369788
vt 0.713064 0.461440
vt 0.713064 0.578300
vt 0.822200 0.658828
vt 0.791044 0.644301
vt 0.827489 0.624536
vt 0.851423 0.642419
vt 0.044843 0.433164
vt 0.151755 0.345752
vt 0.799150 0.519667
vt 0.811239 0.552988
vt 0.782839 0.545860
vt 0.752388 0.447767
vt 0.752388 0.585864
vt 0.266359 0.089491
vt 0.230676 0.107104
vt 0.240453 0.758374
vt 0.154695 0.866637
vt 0.128795 0.836383
vt 0.548148 0.088644
vt 0.512667 0.104292
vt 0.804652 0.153306
vt 0.719062 0.261660
vt 0.692664 0.231258
vt 0.550693 0.958642
vt 0.563278 0.980912
vt 0.550170 0.979608
vt 0.550647 0.983607
vt 0.563278 0.893050
vt 0.550693 0.915321
vt 0.550647 0.890610
vt 0.550771 0.894529
vt 0.587761 0.980912
vt 0.600347 0.958642
vt 0.600392 0.983607
vt 0.600869 0.979608
vt 0.600347 0.915321
vt 0.587761 0.893050
vt 0.600268 0.894529
vt 0.600392 0.890610
vt 0.296810 0.466059
vt 0.436712 0.476513
vt 0.442090 0.494320
vt 0.406309 0.259300
vt 0.422147 0.211348
vt 0.434531 0.225609
vt 0.424439 0.266682
vt 0.305577 0.845231
vt 0.435998 0.794887
vt 0.448498 0.808667
vt 0.339602 0.871293
vt 0.124302 0.262704
vt 0.140427 0.211933
vt 0.152860 0.225775
vt 0.142517 0.269295
vt 0.361812 0.199639
vt 0.345474 0.208325
vt 0.339525 0.070690
vt 0.364662 0.251217
vt 0.339182 0.297298
vt 0.326324 0.290966
vt 0.343761 0.249012
vt 0.080141 0.199750
vt 0.063874 0.207793
vt 0.057675 0.072144
vt 0.082689 0.254294
vt 0.056930 0.303119
vt 0.044233 0.295265
vt 0.061852 0.251478
vt 0.296810 0.725776
vt 0.431488 0.733443
vt 0.340306 0.354462
vt 0.459085 0.419111
vt 0.511561 0.243905
vt 0.450979 0.221411
vt 0.914974 0.708132
vt 0.908033 0.777726
vt 0.881874 0.756017
vt 0.889832 0.708196
vt 0.229730 0.245574
vt 0.169729 0.217599
vt 0.942564 0.708132
vt 0.949505 0.638533
vt 0.975664 0.660433
vt 0.967707 0.708196
vt 0.867837 0.304228
vt 0.835103 0.306314
vt 0.847854 0.229214
vt 0.867837 0.219869
vt 0.928769 0.708138
vt 0.949505 0.777726
vt 0.928769 0.791740
vt 0.056061 0.215138
vt 0.024770 0.170579
vt 0.493896 0.715527
vt 0.493896 0.664829
vt 0.495203 0.677937
vt 0.495203 0.702419
vt 0.688406 0.594085
vt 0.585841 0.571506
vt 0.498174 0.409957
vt 0.475572 0.351024
vt 0.054585 0.218497
vt 0.015225 0.171331
vt 0.622415 0.984775
vt 0.622415 0.889188
vt 0.615825 0.936983
vt 0.198633 0.390090
vt 0.246166 0.483842
vt 0.463445 0.708245
vt 0.417105 0.664829
vt 0.528624 0.889188
vt 0.528624 0.984775
vt 0.535215 0.936983
vt 0.493896 0.795475
vt 0.493896 0.745978
vt 0.495372 0.758485
vt 0.495372 0.782968
vt 0.337329 0.218393
vt 0.335827 0.221700
vt 0.296810 0.172116
vt 0.306368 0.171062
vt 0.266359 0.247080
vt 0.799150 0.400177
vt 0.056911 0.047166
vt 0.782839 0.369488
vt 0.811239 0.339458
vt 0.450201 0.511726
vt 0.462048 0.515600
vt 0.484849 0.525354
vt 0.545000 0.454045
vt 0.611433 0.372705
vt 0.918673 0.822191
vt 0.962907 0.825207
vt 0.976369 0.858559
vt 0.931841 0.863510
vt 0.548148 0.245830
vt 0.774476 0.768467
vt 0.733265 0.777038
vt 0.184656 0.356513
vt 0.463445 0.820730
vt 0.452647 0.888363
vt 0.181082 0.589810
vt 0.075970 0.589810
vt 0.881874 0.859092
vt 0.890336 0.894535
vt 0.976369 0.931700
vt 0.953207 0.940512
vt 0.804652 0.015225
vt 0.240453 0.620261
vt 0.666713 0.339458
vt 0.015225 0.568048
vt 0.015225 0.731656
vt 0.578598 0.126461
vt 0.835103 0.037690
vt 0.972259 0.015225
vt 0.972259 0.189418
vt 0.835103 0.182702
vt 0.551008 0.858737
vt 0.696017 0.858737
vt 0.908033 0.638533
vt 0.928769 0.624536
vt 0.975664 0.756017
vt 0.881874 0.660433
vt 0.399518 0.309008
vt 0.117217 0.315301
vt 0.133218 0.313248
vt 0.415382 0.308250
vn 0.0000 -0.9873 0.1590
vn 0.7692 -0.0891 -0.6328
vn -0.7703 -0.0868 0.6317
vn 0.1138 0.1930 -0.9746
vn -0.8778 0.3208 0.3556
vn 0.8779 0.3207 -0.3557
vn -0.3284 0.0000 -0.9445
vn 0.9726 0.0000 -0.2325
vn -0.9726 0.0000 0.2326
vn 0.3284 0.0000 0.9445
vn -0.2488 0.9555 0.1582
vn 0.2488 0.9555 -0.1582
vn 0.0000 -0.9871 -0.1602
vn -0.7746 -0.6224 -0.1121
vn 0.3635 -0.7061 -0.6076
vn 0.7746 -0.6224 0.1122
vn -0.3635 -0.7061 0.6076
vn -0.8924 0.4216 -0.1611
vn -0.2825 0.7158 -0.6386
vn 0.8923 0.4217 0.1610
vn 0.2825 0.7158 0.6386
vn -0.0792 -0.9967 0.0156
vn -0.0788 -0.9968 -0.0150
vn 0.0792 -0.9967 0.0156
vn 0.0788 -0.9968 -0.0150
vn 0.0000 -1.0000 -0.0000
vn 0.8325 0.0920 -0.5463
vn 0.8644 0.3922 0.3146
vn -0.8325 0.0920 0.5463
vn -0.8644 0.3922 -0.3146
vn 0.8380 -0.1054 0.5354
vn 0.8524 -0.3637 -0.3758
vn -0.8380 -0.1054 -0.5355
vn -0.8524 -0.3637 0.3758
vn -0.8521 0.0000 0.5234
vn -0.9568 0.0000 -0.2908
vn 0.8521 0.0000 -0.5234
vn 0.9568 0.0000 0.2908
vn 0.7110 -0.0986 0.6963
vn 0.3398 0.9109 -0.2342
vn -0.7109 -0.0987 -0.6963
vn -0.3398 0.9109 0.2342
vn 0.3254 -0.3074 0.8942
vn 0.1045 0.9810 -0.1632
vn -0.7692 -0.0891 -0.6328
vn 0.0000 0.9621 0.2726
vn -0.6228 -0.7543 -0.2078
vn 0.7130 0.1502 -0.6849
vn -0.7130 0.1502 -0.6849
vn 0.7709 -0.6370 0.0001
vn 0.6222 -0.7550 0.2072
vn -0.6915 0.1160 0.7130
vn -0.7709 -0.6370 0.0001
vn -0.0000 0.9793 -0.2027
vn 0.6915 0.1160 0.7130
vn -0.8779 0.3207 -0.3557
vn 0.9726 0.0000 0.2326
vn -0.7746 -0.6224 0.1122
vn 0.8924 0.4216 -0.1611
vn -0.8325 0.0920 -0.5463
vn 0.8380 -0.1054 -0.5355
vn -0.8521 0.0000 -0.5234
vn 0.7109 -0.0987 -0.6963
vn 0.3255 -0.3075 -0.8941
vn 0.6228 -0.7543 -0.2078
vn 0.7703 -0.0868 0.6317
vn 0.1137 0.1935 0.9745
vn 0.8778 0.3208 0.3556
vn -0.9726 0.0000 -0.2325
vn 0.7746 -0.6224 -0.1121
vn -0.8923 0.4217 0.1610
vn 0.8325 0.0920 0.5463
vn -0.8380 -0.1054 0.5354
vn 0.8521 0.0000 0.5234
vn -0.7110 -0.0986 0.6963
vn -0.6222 -0.7550 0.2072
vn -0.1137 0.1935 0.9745
vn -0.3255 -0.3075 -0.8941
vn -0.1045 0.9810 -0.1632
vn -0.3254 -0.3074 0.8942
vn -0.2825 0.7158 0.6386
vn 0.2825 0.7158 -0.6386
vn 0.3635 -0.7061 0.6076
vn -0.3635 -0.7061 -0.6076
vn -0.2488 0.9555 -0.1582
vn 0.2488 0.9555 0.1582
vn -0.3284 0.0000 0.9445
vn 0.3284 0.0000 -0.9445
vn -0.1138 0.1930 -0.9746
vn -0.1045 0.9810 0.1632
vn 0.1045 0.9810 0.1632
vn -0.3398 0.9109 -0.2342
vn 0.3398 0.9109 0.2342
vn 0.9568 0.0000 -0.2908
vn -0.9568 0.0000 0.2908
vn -0.8524 -0.3637 -0.3758
vn 0.8524 -0.3637 0.3758
vn -0.8644 0.3922 0.3146
vn 0.8644 0.3922 -0.3146
usemtl Material
s off
f 32/1/1 57/2/1 58/3/1 26/4/1 14/5/1 87/6/1 15/7/1
f 66/8/2 53/9/2 40/10/2 62/11/2
f 78/12/3 60/13/3 38/14/3 74/15/3
f 97/16/4 67/17/4 1/18/4 86/19/4
f 73/20/5 2/21/5 18/22/5 75/23/5
f 61/24/6 4/25/6 20/26/6 63/27/6
f 91/28/7 6/29/7 10/30/7 93/31/7
f 82/32/8 7/33/8 11/34/8 83/35/8
f 70/36/9 5/37/9 9/38/9 71/39/9
f 92/40/10 8/41/10 12/42/10 94/43/10
f 86/44/11 1/45/11 17/46/11 90/47/11
f 85/48/12 3/49/12 19/50/12 89/51/12
f 23/52/13 56/53/13 55/54/13 29/55/13 16/56/13 88/57/13 13/58/13
f 76/59/14 6/60/14 14/61/14 74/62/14
f 91/63/15 7/64/15 15/7/15 87/6/15
f 64/65/16 8/41/16 16/66/16 62/67/16
f 92/68/17 5/69/17 13/58/17 88/57/17
f 71/39/18 9/38/18 17/70/18 69/71/18
f 93/72/19 10/73/19 18/74/19 89/51/19
f 83/35/20 11/34/20 19/75/20 81/76/20
f 94/77/21 12/78/21 20/79/21 90/47/21
f 21/80/22 22/81/22 56/82/22 54/83/22
f 24/84/23 25/85/23 60/86/23 58/87/23
f 27/88/24 28/89/24 53/90/24 55/91/24
f 30/92/25 31/93/25 57/94/25 59/95/25
f 21/80/26 25/85/26 24/84/26 31/93/26 30/92/26 28/89/26 27/88/26 22/81/26
f 65/96/27 52/97/27 44/98/27 63/27/27
f 108/99/28 51/100/28 43/101/28 104/102/28
f 77/103/29 50/104/29 42/105/29 75/106/29
f 107/107/30 49/108/30 41/109/30 103/110/30
f 82/32/31 47/111/31 39/112/31 80/113/31
f 106/114/32 48/115/32 40/116/32 102/117/32
f 70/36/33 45/118/33 37/119/33 68/120/33
f 105/121/34 46/122/34 38/123/34 101/124/34
f 76/125/35 46/126/35 50/104/35 77/103/35
f 105/121/36 45/118/36 49/108/36 107/107/36
f 64/127/37 48/128/37 52/97/37 65/96/37
f 106/114/38 47/111/38 51/100/38 108/99/38
f 79/129/39 35/130/39 43/101/39 81/76/39
f 100/131/40 36/132/40 44/133/40 104/134/40
f 67/135/41 33/136/41 41/109/41 69/71/41
f 99/137/42 34/138/42 42/139/42 103/140/42
f 98/141/43 73/142/43 34/143/43 95/144/43
f 109/145/44 99/137/44 33/146/44 96/147/44
f 37/119/45 54/148/45 72/149/45 68/120/45
f 55/150/46 56/151/46 22/152/46 27/153/46
f 68/154/47 72/155/47 23/52/47 13/58/47
f 55/156/48 53/9/48 66/8/48 29/157/48
f 54/148/49 56/158/49 23/159/49 72/149/49
f 40/160/50 53/90/50 28/89/50 30/92/50 59/95/50 39/161/50 102/162/50
f 80/163/51 84/164/51 32/1/51 15/7/51
f 58/165/52 60/13/52 78/12/52 26/166/52
f 38/167/53 60/86/53 25/85/53 21/80/53 54/83/53 37/168/53 101/169/53
f 58/170/54 57/171/54 31/172/54 24/173/54
f 59/174/55 57/175/55 32/176/55 84/177/55
f 1/178/56 67/135/56 69/71/56 17/70/56
f 8/41/57 64/65/57 65/179/57 12/42/57
f 5/37/58 70/36/58 68/120/58 13/180/58
f 12/42/59 65/179/59 63/181/59 20/182/59
f 49/108/60 71/39/60 69/71/60 41/109/60
f 48/128/61 64/127/61 62/11/61 40/10/61
f 45/118/62 70/36/62 71/39/62 49/108/62
f 36/183/63 61/24/63 63/27/63 44/98/63
f 96/184/64 33/185/64 67/17/64 97/16/64
f 29/55/65 66/186/65 62/187/65 16/56/65
f 39/112/66 59/174/66 84/177/66 80/113/66
f 85/188/67 2/189/67 73/190/67 98/191/67
f 3/192/68 79/129/68 81/76/68 19/75/68
f 6/60/69 76/59/69 77/193/69 10/194/69
f 7/64/70 82/195/70 80/163/70 15/7/70
f 10/194/71 77/193/71 75/23/71 18/22/71
f 51/100/72 83/35/72 81/76/72 43/101/72
f 46/126/73 76/125/73 74/15/73 38/14/73
f 47/111/74 82/32/74 83/35/74 51/100/74
f 34/196/75 73/197/75 75/106/75 42/105/75
f 26/4/76 78/198/76 74/199/76 14/5/76
f 3/200/77 85/188/77 98/191/77 79/201/77
f 36/183/78 96/184/78 97/16/78 61/24/78
f 100/131/79 109/145/79 96/147/79 36/132/79
f 79/201/80 98/191/80 95/202/80 35/203/80
f 9/204/81 94/77/81 90/47/81 17/46/81
f 11/205/82 93/72/82 89/51/82 19/50/82
f 8/206/83 92/68/83 88/57/83 16/56/83
f 6/207/84 91/63/84 87/6/84 14/5/84
f 2/208/85 85/48/85 89/51/85 18/74/85
f 4/209/86 86/44/86 90/47/86 20/79/86
f 5/210/87 92/211/87 94/212/87 9/213/87
f 7/214/88 91/28/88 93/31/88 11/215/88
f 61/24/89 97/16/89 86/19/89 4/25/89
f 35/216/90 95/217/90 109/145/90 100/131/90
f 95/217/91 34/138/91 99/137/91 109/145/91
f 33/146/92 99/137/92 103/140/92 41/218/92
f 35/216/93 100/131/93 104/134/93 43/219/93
f 48/115/94 106/114/94 108/99/94 52/220/94
f 46/122/95 105/121/95 107/107/95 50/221/95
f 45/118/96 105/121/96 101/124/96 37/119/96
f 47/111/97 106/114/97 102/117/97 39/112/97
f 50/221/98 107/107/98 103/110/98 42/222/98
f 52/220/99 108/99/99 104/102/99 44/223/99
