# Blender v2.93.5 OBJ File: ''
# www.blender.org
mtllib untitled.mtl
o Сфера
v 0.000000 0.980785 -0.195090
v 0.000000 0.555570 -0.831470
v 0.000000 -0.831470 -0.555570
v 0.137950 0.980785 -0.137950
v 0.587938 0.555570 -0.587938
v 0.693520 -0.195090 -0.693520
v 0.392848 -0.831470 -0.392847
v 0.195090 0.980785 0.000000
v 0.831469 0.555570 0.000000
v 0.980785 -0.195090 0.000000
v 0.555570 -0.831470 0.000000
v 0.137950 0.980785 0.137950
v 0.587938 0.555570 0.587938
v 0.693520 -0.195090 0.693520
v 0.392847 -0.831470 0.392847
v 0.000000 0.980785 0.195090
v -0.000000 0.555570 0.831469
v -0.000000 -0.195090 0.980785
v -0.000000 -0.831470 0.555570
v -0.137950 0.980785 0.137950
v -0.587937 0.555570 0.587938
v -0.693520 -0.195090 0.693520
v -0.392847 -0.831470 0.392847
v -0.000000 1.000000 0.000000
v -0.195090 0.980785 0.000000
v -0.831469 0.555570 0.000000
v -0.980785 -0.195090 -0.000000
v -0.555570 -0.831470 -0.000000
v -0.137950 0.980785 -0.137950
v -0.587937 0.555570 -0.587937
v -0.693519 -0.195090 -0.693520
v -0.392847 -0.831470 -0.392847
v 0.000000 -0.195090 -0.980785
v 0.000000 -1.000000 0.000000
vt 1.000000 0.000000
vt 1.000000 1.000000
vt 0.000000 0.000000
vt 0.000000 0.000000
vt 1.000000 0.000000
vt 1.000000 1.000000
vt 0.000000 1.000000
vt 0.000000 0.000000
vt 1.000000 0.000000
vt 1.000000 1.000000
vt 0.000000 0.000000
vt 1.000000 0.000000
vt 1.000000 1.000000
vt 0.000000 1.000000
vt 0.000000 0.000000
vt 1.000000 0.000000
vt 1.000000 0.000000
vt 1.000000 0.000000
vt 1.000000 1.000000
vt 0.000000 1.000000
vt 0.000000 0.000000
vt 0.000000 1.000000
vt 0.000000 0.000000
vt 1.000000 0.000000
vt 1.000000 1.000000
vt 0.000000 0.000000
vt 0.000000 0.000000
vt 0.000000 0.000000
vt 1.000000 0.000000
vt 1.000000 1.000000
vt 0.000000 1.000000
vt 0.000000 0.000000
vt 1.000000 0.000000
vt 1.000000 1.000000
vt 0.000000 0.000000
vt 1.000000 0.000000
vt 1.000000 1.000000
vt 0.000000 0.000000
vt 0.000000 0.000000
vt 0.000000 0.000000
vt 1.000000 0.000000
vt 1.000000 0.000000
vt 1.000000 1.000000
vt 0.000000 1.000000
vt 0.000000 0.000000
vt 1.000000 0.000000
vt 1.000000 1.000000
vt 0.000000 1.000000
vt 0.000000 0.000000
vt 1.000000 0.000000
vt 1.000000 1.000000
vt 0.000000 0.000000
vt 0.000000 0.000000
vt 1.000000 0.000000
vt 1.000000 0.000000
vt 1.000000 1.000000
vt 0.000000 1.000000
vt 0.000000 0.000000
vt 1.000000 0.000000
vt 1.000000 1.000000
vt 0.000000 1.000000
vt 0.000000 0.000000
vt 0.000000 0.000000
vt 0.000000 0.000000
vt 1.000000 0.000000
vt 1.000000 0.000000
vt 1.000000 1.000000
vt 0.000000 1.000000
vt 0.000000 0.000000
vt 1.000000 0.000000
vt 1.000000 1.000000
vt 0.000000 1.000000
vt 0.000000 0.000000
vt 0.000000 0.000000
vt 1.000000 0.000000
vt 1.000000 0.000000
vt 1.000000 1.000000
vt 0.000000 1.000000
vt 0.000000 0.000000
vt 1.000000 0.000000
vt 1.000000 1.000000
vt 0.000000 1.000000
vt 0.000000 0.000000
vt 0.000000 0.000000
vt 1.000000 0.000000
vt 0.000000 0.000000
vt 1.000000 0.000000
vt 1.000000 0.000000
vt 1.000000 1.000000
vt 1.000000 0.000000
vt 1.000000 0.000000
vt 1.000000 1.000000
vt 0.000000 1.000000
vt 0.000000 0.000000
vt 1.000000 0.000000
vt 1.000000 1.000000
vt 0.000000 1.000000
vt 0.000000 0.000000
vt 1.000000 0.000000
vt 1.000000 1.000000
vt 0.000000 1.000000
vt 0.000000 0.000000
vt 1.000000 0.000000
vt 1.000000 1.000000
vt 1.000000 0.000000
vt 1.000000 1.000000
vn 0.2243 0.8103 -0.5414
vn 0.7862 -0.5253 0.3256
vn 0.5414 0.8103 -0.2243
vn 0.3764 0.1807 -0.9087
vn 0.0979 0.9944 -0.0406
vn 0.3256 -0.5253 -0.7862
vn -0.3764 0.1807 -0.9087
vn 0.2882 -0.9501 -0.1194
vn 0.9087 0.1807 0.3764
vn 0.5414 0.8103 0.2243
vn -0.5414 0.8103 0.2243
vn 0.2882 -0.9501 0.1194
vn 0.0979 0.9944 0.0406
vn 0.3764 0.1807 0.9087
vn 0.3256 -0.5253 0.7862
vn -0.5414 0.8103 -0.2243
vn 0.1194 -0.9501 0.2882
vn 0.0406 0.9944 0.0979
vn -0.3764 0.1807 0.9087
vn -0.3256 -0.5253 0.7862
vn -0.1194 -0.9501 0.2882
vn -0.0406 0.9944 0.0979
vn -0.7862 -0.5253 0.3256
vn -0.9087 0.1807 0.3764
vn -0.2882 -0.9501 0.1194
vn -0.0979 0.9944 0.0406
vn -0.9087 0.1807 -0.3764
vn -0.7862 -0.5253 -0.3256
vn -0.2882 -0.9501 -0.1194
vn -0.0979 0.9944 -0.0406
vn -0.1194 -0.9501 -0.2882
vn -0.0406 0.9944 -0.0979
vn -0.2243 0.8103 0.5414
vn 0.0406 0.9944 -0.0979
vn 0.9087 0.1807 -0.3764
vn 0.7862 -0.5253 -0.3256
vn 0.2243 0.8103 0.5414
vn -0.3256 -0.5253 -0.7862
vn 0.1194 -0.9501 -0.2882
vn -0.2243 0.8103 -0.5414
usemtl None
s off
f 5/1/1 2/2/1 1/3/1 4/4/1
f 15/5/2 11/6/2 10/7/2 14/8/2
f 9/9/3 5/10/3 4/4/3 8/11/3
f 6/12/4 33/13/4 2/14/4 5/15/4
f 4/4/5 24/16/5 8/17/5
f 7/18/6 3/19/6 33/20/6 6/21/6
f 30/22/7 2/23/7 33/24/7 31/25/7
f 7/26/8 11/27/8 34/28/8
f 14/29/9 10/30/9 9/31/9 13/32/9
f 13/33/10 9/34/10 8/11/10 12/35/10
f 26/36/11 21/37/11 20/38/11 25/39/11
f 11/27/12 15/40/12 34/28/12
f 8/11/13 24/16/13 12/41/13
f 18/42/14 14/43/14 13/44/14 17/45/14
f 19/46/15 15/47/15 14/48/15 18/49/15
f 30/50/16 26/51/16 25/39/16 29/52/16
f 15/40/17 19/53/17 34/28/17
f 12/35/18 24/16/18 16/54/18
f 22/55/19 18/56/19 17/57/19 21/58/19
f 23/59/20 19/60/20 18/61/20 22/62/20
f 19/53/21 23/63/21 34/28/21
f 16/64/22 24/16/22 20/65/22
f 28/66/23 23/67/23 22/68/23 27/69/23
f 27/70/24 22/71/24 21/72/24 26/73/24
f 23/63/25 28/74/25 34/28/25
f 20/38/26 24/16/26 25/75/26
f 31/76/27 27/77/27 26/78/27 30/79/27
f 32/80/28 28/81/28 27/82/28 31/83/28
f 28/74/29 32/84/29 34/28/29
f 25/39/30 24/16/30 29/85/30
f 32/84/31 3/86/31 34/28/31
f 29/52/32 24/16/32 1/87/32
f 21/88/33 17/89/33 16/64/33 20/38/33
f 1/3/34 24/16/34 4/90/34
f 10/91/35 6/92/35 5/93/35 9/94/35
f 11/95/36 7/96/36 6/97/36 10/98/36
f 17/99/37 13/100/37 12/35/37 16/64/37
f 31/101/38 33/102/38 3/103/38 32/104/38
f 3/86/39 7/26/39 34/28/39
f 29/52/40 1/3/40 2/105/40 30/106/40
