# Blender v2.93.5 OBJ File: 'MolotGREK.blend'
# www.blender.org
mtllib MolotGREK.mtl
o Cube_Cube.001
v -0.095788 1.102331 0.095788
v -0.095788 1.102331 -0.095788
v 0.095788 1.102331 -0.095788
v 0.095788 1.102331 0.095788
v -0.255998 0.648551 0.442333
v -0.255998 0.648551 -0.442333
v 0.255998 0.648551 -0.442333
v 0.255998 0.648551 0.442333
v -0.255998 0.961446 0.442333
v -0.255998 0.961446 -0.442333
v 0.255998 0.961446 -0.442333
v 0.255998 0.961446 0.442333
v -0.216630 0.574077 0.374310
v -0.216630 0.574077 -0.374310
v 0.216630 0.574077 -0.374310
v 0.216630 0.574077 0.374310
v -0.216630 1.035920 0.374310
v -0.216630 1.035920 -0.374310
v 0.216630 1.035920 -0.374310
v 0.216630 1.035920 0.374310
v -0.029958 -0.673788 0.056536
v -0.056536 -0.673788 0.029958
v -0.114687 0.531239 0.056547
v -0.056547 0.531239 0.114687
v -0.114959 0.538035 0.139973
v -0.056536 -0.673788 -0.029958
v -0.029958 -0.673788 -0.056536
v -0.056547 0.531239 -0.114687
v -0.114687 0.531239 -0.056547
v -0.114959 0.538035 -0.139973
v 0.056536 -0.673788 0.029958
v 0.029958 -0.673788 0.056536
v 0.056547 0.531239 0.114687
v 0.114687 0.531239 0.056547
v 0.114959 0.538035 0.139973
v 0.029958 -0.673788 -0.056536
v 0.056536 -0.673788 -0.029958
v 0.114687 0.531239 -0.056547
v 0.056547 0.531239 -0.114687
v 0.114959 0.538035 -0.139973
v -0.097096 -0.612311 0.047874
v -0.047874 -0.612311 0.097096
v -0.047874 -0.612311 -0.097096
v -0.097096 -0.612311 -0.047874
v 0.097096 -0.612311 -0.047874
v 0.047874 -0.612311 -0.097096
v 0.047874 -0.612311 0.097096
v 0.097096 -0.612311 0.047874
v -0.036391 0.219097 0.073807
v -0.073807 0.219097 0.036391
v -0.036391 0.219097 -0.073807
v -0.073807 0.219097 -0.036391
v 0.073807 0.219097 -0.036391
v 0.036391 0.219097 -0.073807
v 0.036391 0.219097 0.073807
v 0.073807 0.219097 0.036391
vt 0.655479 0.183288
vt 0.650012 0.011644
vt 0.695602 0.011644
vt 0.690135 0.183288
vt 0.261065 0.486020
vt 0.237518 0.496213
vt 0.191928 0.496213
vt 0.168381 0.486020
vt 0.127396 0.391555
vt 0.302050 0.391555
vt 0.261065 0.598871
vt 0.260955 0.565241
vt 0.260955 0.519650
vt 0.302050 0.693336
vt 0.168491 0.519650
vt 0.168491 0.565241
vt 0.168381 0.598871
vt 0.127396 0.693336
vt 0.921639 0.436843
vt 0.927106 0.608445
vt 0.881516 0.608445
vt 0.886983 0.436843
vt 0.076227 0.151342
vt 0.153455 0.151342
vt 0.153455 0.228569
vt 0.076227 0.228569
vt 0.202168 0.039065
vt 0.202168 0.340846
vt 0.027514 0.340846
vt 0.027514 0.039065
vt 0.075204 0.816754
vt 0.080671 0.988356
vt 0.035081 0.988356
vt 0.040548 0.816754
vt 0.440057 0.391555
vt 0.440057 0.597950
vt 0.325338 0.597950
vt 0.325338 0.391555
vt 0.268754 0.368267
vt 0.268754 0.011644
vt 0.383479 0.011644
vt 0.383479 0.368267
vt 0.461379 0.368267
vt 0.461379 0.011644
vt 0.576103 0.011644
vt 0.576103 0.368267
vt 0.440057 0.621237
vt 0.440057 0.827632
vt 0.325338 0.827632
vt 0.325338 0.621237
vt 0.191928 0.588678
vt 0.237518 0.588678
vt 0.771231 0.183288
vt 0.765764 0.011644
vt 0.811354 0.011644
vt 0.805887 0.183288
vt 0.433950 0.340846
vt 0.433950 0.039065
vt 0.467695 0.407425
vt 0.467695 0.582080
vt 0.241326 0.340846
vt 0.241326 0.039065
vt 0.467695 0.637107
vt 0.467695 0.811762
vt 0.603287 0.039065
vt 0.603287 0.340846
vt 0.011644 0.011644
vt 0.218038 0.011644
vt 0.410663 0.039065
vt 0.410663 0.340846
vt 0.218038 0.368267
vt 0.011644 0.368267
vt 0.719039 0.011928
vt 0.707951 0.183504
vt 0.869168 0.436706
vt 0.858079 0.040884
vt 0.881516 0.041064
vt 0.080671 0.420975
vt 0.104108 0.420795
vt 0.093019 0.816617
vt 0.022733 0.816617
vt 0.011644 0.420795
vt 0.035081 0.420975
vt 0.490983 0.404210
vt 0.503638 0.391555
vt 0.532167 0.391555
vt 0.544822 0.404210
vt 0.544822 0.432739
vt 0.532167 0.445394
vt 0.503638 0.445394
vt 0.490983 0.432739
vt 0.699727 0.608658
vt 0.687072 0.608505
vt 0.695602 0.579000
vt 0.719039 0.579284
vt 0.774295 0.608505
vt 0.761639 0.608658
vt 0.742327 0.579284
vt 0.765764 0.579000
vt 0.815479 0.608658
vt 0.802824 0.608505
vt 0.811354 0.579000
vt 0.834791 0.579284
vt 0.658543 0.608505
vt 0.645888 0.608658
vt 0.626575 0.579284
vt 0.650012 0.579000
vt 0.890047 0.011644
vt 0.918576 0.011644
vt 0.927106 0.041064
vt 0.043611 0.391555
vt 0.072141 0.391555
vt 0.637664 0.183504
vt 0.626575 0.011928
vt 0.834791 0.011928
vt 0.823703 0.183504
vt 0.753416 0.183504
vt 0.742327 0.011928
vt 0.950543 0.040884
vt 0.939454 0.436706
vn 0.0000 -0.1299 0.9915
vn -0.0000 -0.9875 -0.1579
vn 0.3549 -0.9349 0.0000
vn -0.3549 -0.9349 0.0000
vn -0.9915 -0.1299 0.0000
vn 0.0000 1.0000 0.0000
vn -0.4816 0.8764 0.0000
vn 0.4816 0.8764 0.0000
vn 0.9915 -0.1299 0.0000
vn 0.0000 0.0000 -1.0000
vn 1.0000 0.0000 0.0000
vn -1.0000 0.0000 0.0000
vn 0.0000 0.0000 1.0000
vn 0.0000 0.9727 0.2319
vn 0.0000 0.9727 -0.2319
vn 0.0000 -0.9875 0.1579
vn 0.0000 -0.1299 -0.9915
vn -0.8841 -0.4673 0.0000
vn 0.0000 -0.6744 -0.7384
vn 0.8841 -0.4673 0.0000
vn 0.0000 -0.6744 0.7384
vn -0.8841 0.4673 0.0000
vn 0.0000 0.6744 -0.7384
vn 0.8841 0.4673 0.0000
vn 0.0000 0.6744 0.7384
vn -0.0807 -0.9935 0.0807
vn -0.0807 -0.9935 -0.0807
vn 0.0807 -0.9935 0.0807
vn 0.0807 -0.9935 -0.0807
vn -0.7004 -0.1370 0.7004
vn -0.7068 0.0296 -0.7068
vn 0.7068 0.0296 -0.7068
vn 0.7068 0.0296 0.7068
vn 0.0000 -1.0000 0.0000
vn -0.5867 -0.5581 0.5867
vn -0.5867 -0.5581 -0.5867
vn 0.5867 -0.5581 -0.5867
vn 0.5867 -0.5581 0.5867
vn -0.8347 -0.5507 0.0000
vn 0.0000 -0.5507 -0.8347
vn 0.8347 -0.5507 0.0000
vn 0.0000 -0.5507 0.8347
vn 0.7004 -0.1370 0.7004
vn 0.7004 -0.1370 -0.7004
vn -0.7004 -0.1370 -0.7004
vn -0.7068 0.0296 0.7068
vn 0.0000 0.0280 -0.9996
vn 0.9996 0.0280 0.0000
vn -0.9996 0.0280 0.0000
vn 0.0000 0.0280 0.9996
usemtl Material
s off
f 55/1/1 33/2/1 24/3/1 49/4/1
f 40/5/2 39/6/2 28/7/2 30/8/2 14/9/2 15/10/2
f 35/11/3 34/12/3 38/13/3 40/5/3 15/10/3 16/14/3
f 30/8/4 29/15/4 23/16/4 25/17/4 13/18/4 14/9/4
f 50/19/5 23/20/5 29/21/5 52/22/5
f 3/23/6 2/24/6 1/25/6 4/26/6
f 1/25/7 2/24/7 18/27/7 17/28/7
f 3/23/8 4/26/8 20/29/8 19/30/8
f 53/31/9 38/32/9 34/33/9 56/34/9
f 7/35/10 6/36/10 10/37/10 11/38/10
f 8/39/11 7/40/11 11/41/11 12/42/11
f 6/43/12 5/44/12 9/45/12 10/46/12
f 5/47/13 8/48/13 12/49/13 9/50/13
f 4/26/14 1/25/14 17/28/14 20/29/14
f 2/24/15 3/23/15 19/30/15 18/27/15
f 25/17/16 24/51/16 33/52/16 35/11/16 16/14/16 13/18/16
f 51/53/17 28/54/17 39/55/17 54/56/17
f 5/44/18 6/43/18 14/57/18 13/58/18
f 6/36/19 7/35/19 15/59/19 14/60/19
f 7/40/20 8/39/20 16/61/20 15/62/20
f 8/48/21 5/47/21 13/63/21 16/64/21
f 10/46/22 9/45/22 17/65/22 18/66/22
f 11/67/23 10/68/23 18/27/23 19/30/23
f 12/42/24 11/41/24 19/69/24 20/70/24
f 9/71/25 12/72/25 20/29/25 17/28/25
f 23/16/26 24/51/26 25/17/26
f 28/7/27 29/15/27 30/8/27
f 33/52/28 34/12/28 35/11/28
f 38/13/29 39/6/29 40/5/29
f 49/4/30 24/3/30 23/73/30 50/74/30
f 51/75/31 43/76/31 44/77/31 52/22/31
f 53/31/32 45/78/32 46/79/32 54/80/32
f 55/81/33 47/82/33 48/83/33 56/34/33
f 26/84/34 27/85/34 36/86/34 37/87/34 31/88/34 32/89/34 21/90/34 22/91/34
f 22/92/35 21/93/35 42/94/35 41/95/35
f 27/96/36 26/97/36 44/98/36 43/99/36
f 37/100/37 36/101/37 46/102/37 45/103/37
f 32/104/38 31/105/38 48/106/38 47/107/38
f 26/108/39 22/109/39 41/110/39 44/77/39
f 36/101/40 27/96/40 43/99/40 46/102/40
f 31/111/41 37/112/41 45/78/41 48/83/41
f 21/93/42 32/104/42 47/107/42 42/94/42
f 33/2/43 55/1/43 56/113/43 34/114/43
f 38/115/44 53/116/44 54/56/44 39/55/44
f 28/54/45 51/53/45 52/117/45 29/118/45
f 42/119/46 49/120/46 50/19/46 41/110/46
f 43/99/47 51/53/47 54/56/47 46/102/47
f 45/78/48 53/31/48 56/34/48 48/83/48
f 41/110/49 50/19/49 52/22/49 44/77/49
f 47/107/50 55/1/50 49/4/50 42/94/50
